<?xml version="1.0" encoding="UTF-8" standalone="no"?>
<!DOCTYPE svg PUBLIC "-//W3C//DTD SVG 1.1//EN"
 "http://www.w3.org/Graphics/SVG/1.1/DTD/svg11.dtd">
<!-- Generated by graphviz version 2.44.0 (20200408.0750)
 -->
<!-- Title: dependency&#45;cruiser output Pages: 1 -->
<svg width="292pt" height="269pt"
 viewBox="0.00 0.00 292.01 269.00" xmlns="http://www.w3.org/2000/svg" xmlns:xlink="http://www.w3.org/1999/xlink">
<g id="graph0" class="graph" transform="scale(1 1) rotate(0) translate(4 265)">
<title>dependency&#45;cruiser output</title>
<polygon fill="white" stroke="transparent" points="-4,4 -4,-265 288.01,-265 288.01,4 -4,4"/>
<g id="clust1" class="cluster">
<title>cluster_client</title>
<path fill="#ffffff" stroke="black" stroke-width="2" d="M20,-8C20,-8 264.01,-8 264.01,-8 270.01,-8 276.01,-14 276.01,-20 276.01,-20 276.01,-241 276.01,-241 276.01,-247 270.01,-253 264.01,-253 264.01,-253 20,-253 20,-253 14,-253 8,-247 8,-241 8,-241 8,-20 8,-20 8,-14 14,-8 20,-8"/>
<text text-anchor="middle" x="142" y="-240.9" font-family="Helvetica,sans-Serif" font-weight="bold" font-size="9.00">client</text>
</g>
<g id="clust2" class="cluster">
<title>cluster_client/src</title>
<path fill="#ffffff" stroke="black" stroke-width="2" d="M28,-16C28,-16 256.01,-16 256.01,-16 262.01,-16 268.01,-22 268.01,-28 268.01,-28 268.01,-214 268.01,-214 268.01,-220 262.01,-226 256.01,-226 256.01,-226 28,-226 28,-226 22,-226 16,-220 16,-214 16,-214 16,-28 16,-28 16,-22 22,-16 28,-16"/>
<text text-anchor="middle" x="142" y="-213.9" font-family="Helvetica,sans-Serif" font-weight="bold" font-size="9.00">src</text>
</g>
<g id="clust3" class="cluster">
<title>cluster_client/src/data</title>
<path fill="#ffffff" stroke="black" stroke-width="2" d="M36,-146C36,-146 82,-146 82,-146 88,-146 94,-152 94,-158 94,-158 94,-187 94,-187 94,-193 88,-199 82,-199 82,-199 36,-199 36,-199 30,-199 24,-193 24,-187 24,-187 24,-158 24,-158 24,-152 30,-146 36,-146"/>
<text text-anchor="middle" x="59" y="-186.9" font-family="Helvetica,sans-Serif" font-weight="bold" font-size="9.00">data</text>
</g>
<g id="clust4" class="cluster">
<title>cluster_client/src/handlers</title>
<path fill="#ffffff" stroke="black" stroke-width="2" d="M196.5,-85C196.5,-85 248.01,-85 248.01,-85 254.01,-85 260.01,-91 260.01,-97 260.01,-97 260.01,-126 260.01,-126 260.01,-132 254.01,-138 248.01,-138 248.01,-138 196.5,-138 196.5,-138 190.5,-138 184.5,-132 184.5,-126 184.5,-126 184.5,-97 184.5,-97 184.5,-91 190.5,-85 196.5,-85"/>
<text text-anchor="middle" x="222.25" y="-125.9" font-family="Helvetica,sans-Serif" font-weight="bold" font-size="9.00">handlers</text>
</g>
<g id="clust5" class="cluster">
<title>cluster_client/src/init</title>
<path fill="#ffffff" stroke="black" stroke-width="2" d="M36,-85C36,-85 82,-85 82,-85 88,-85 94,-91 94,-97 94,-97 94,-126 94,-126 94,-132 88,-138 82,-138 82,-138 36,-138 36,-138 30,-138 24,-132 24,-126 24,-126 24,-97 24,-97 24,-91 30,-85 36,-85"/>
<text text-anchor="middle" x="59" y="-125.9" font-family="Helvetica,sans-Serif" font-weight="bold" font-size="9.00">init</text>
</g>
<g id="clust6" class="cluster">
<title>cluster_client/src/listeners</title>
<path fill="#ffffff" stroke="black" stroke-width="2" d="M114,-85C114,-85 164.5,-85 164.5,-85 170.5,-85 176.5,-91 176.5,-97 176.5,-97 176.5,-126 176.5,-126 176.5,-132 170.5,-138 164.5,-138 164.5,-138 114,-138 114,-138 108,-138 102,-132 102,-126 102,-126 102,-97 102,-97 102,-91 108,-85 114,-85"/>
<text text-anchor="middle" x="139.25" y="-125.9" font-family="Helvetica,sans-Serif" font-weight="bold" font-size="9.00">listeners</text>
</g>
<g id="clust7" class="cluster">
<title>cluster_client/src/logic</title>
<path fill="#ffffff" stroke="black" stroke-width="2" d="M36,-24C36,-24 82,-24 82,-24 88,-24 94,-30 94,-36 94,-36 94,-65 94,-65 94,-71 88,-77 82,-77 82,-77 36,-77 36,-77 30,-77 24,-71 24,-65 24,-65 24,-36 24,-36 24,-30 30,-24 36,-24"/>
<text text-anchor="middle" x="59" y="-64.9" font-family="Helvetica,sans-Serif" font-weight="bold" font-size="9.00">logic</text>
</g>
<!-- client/src/data/data.js -->
<g id="node1" class="node">
<title>client/src/data/data.js</title>
<g id="a_node1"><a xlink:href="../client/src/data/data.js" xlink:title="data.js">
<path fill="#ccffcc" stroke="black" d="M79.8,-172.3C79.8,-172.3 38.2,-172.3 38.2,-172.3 35.1,-172.3 32,-169.2 32,-166.1 32,-166.1 32,-159.9 32,-159.9 32,-156.8 35.1,-153.7 38.2,-153.7 38.2,-153.7 79.8,-153.7 79.8,-153.7 82.9,-153.7 86,-156.8 86,-159.9 86,-159.9 86,-166.1 86,-166.1 86,-169.2 82.9,-172.3 79.8,-172.3"/>
<text text-anchor="middle" x="59" y="-160.3" font-family="Helvetica,sans-Serif" font-size="9.00">data.js</text>
</a>
</g>
</g>
<!-- client/src/handlers/handlers.js -->
<g id="node2" class="node">
<title>client/src/handlers/handlers.js</title>
<g id="a_node2"><a xlink:href="../client/src/handlers/handlers.js" xlink:title="handlers.js">
<path fill="#ffffcc" stroke="black" d="M245.56,-111.3C245.56,-111.3 198.94,-111.3 198.94,-111.3 195.84,-111.3 192.74,-108.2 192.74,-105.1 192.74,-105.1 192.74,-98.9 192.74,-98.9 192.74,-95.8 195.84,-92.7 198.94,-92.7 198.94,-92.7 245.56,-92.7 245.56,-92.7 248.66,-92.7 251.76,-95.8 251.76,-98.9 251.76,-98.9 251.76,-105.1 251.76,-105.1 251.76,-108.2 248.66,-111.3 245.56,-111.3"/>
<text text-anchor="middle" x="222.25" y="-99.3" font-family="Helvetica,sans-Serif" font-size="9.00">handlers.js</text>
</a>
</g>
</g>
<!-- client/src/init/index.js -->
<g id="node3" class="node">
<title>client/src/init/index.js</title>
<g id="a_node3"><a xlink:href="../client/src/init/index.js" xlink:title="index.js">
<path fill="#ffffcc" stroke="black" d="M79.8,-111.3C79.8,-111.3 38.2,-111.3 38.2,-111.3 35.1,-111.3 32,-108.2 32,-105.1 32,-105.1 32,-98.9 32,-98.9 32,-95.8 35.1,-92.7 38.2,-92.7 38.2,-92.7 79.8,-92.7 79.8,-92.7 82.9,-92.7 86,-95.8 86,-98.9 86,-98.9 86,-105.1 86,-105.1 86,-108.2 82.9,-111.3 79.8,-111.3"/>
<text text-anchor="middle" x="59" y="-99.3" font-family="Helvetica,sans-Serif" font-size="9.00">index.js</text>
</a>
</g>
</g>
<!-- client/src/listeners/listeners.js -->
<g id="node4" class="node">
<title>client/src/listeners/listeners.js</title>
<g id="a_node4"><a xlink:href="../client/src/listeners/listeners.js" xlink:title="listeners.js">
<path fill="#ffffcc" stroke="black" d="M162.55,-111.3C162.55,-111.3 115.95,-111.3 115.95,-111.3 112.85,-111.3 109.75,-108.2 109.75,-105.1 109.75,-105.1 109.75,-98.9 109.75,-98.9 109.75,-95.8 112.85,-92.7 115.95,-92.7 115.95,-92.7 162.55,-92.7 162.55,-92.7 165.65,-92.7 168.75,-95.8 168.75,-98.9 168.75,-98.9 168.75,-105.1 168.75,-105.1 168.75,-108.2 165.65,-111.3 162.55,-111.3"/>
<text text-anchor="middle" x="139.25" y="-99.3" font-family="Helvetica,sans-Serif" font-size="9.00">listeners.js</text>
</a>
</g>
</g>
<!-- client/src/init/index.js&#45;&gt;client/src/listeners/listeners.js -->
<g id="edge1" class="edge">
<title>client/src/init/index.js&#45;&gt;client/src/listeners/listeners.js</title>
<path fill="none" stroke="#000000" stroke-width="2" stroke-opacity="0.200000" d="M86.06,-102C91.67,-102 97.69,-102 103.58,-102"/>
<polygon fill="#000000" fill-opacity="0.200000" stroke="#000000" stroke-width="2" stroke-opacity="0.200000" points="103.89,-104.1 109.89,-102 103.89,-99.9 103.89,-104.1"/>
</g>
<!-- client/src/listeners/listeners.js&#45;&gt;client/src/handlers/handlers.js -->
<g id="edge2" class="edge">
<title>client/src/listeners/listeners.js&#45;&gt;client/src/handlers/handlers.js</title>
<path fill="none" stroke="#000000" stroke-width="2" stroke-opacity="0.200000" d="M168.58,-102C174.28,-102 180.33,-102 186.22,-102"/>
<polygon fill="#000000" fill-opacity="0.200000" stroke="#000000" stroke-width="2" stroke-opacity="0.200000" points="186.53,-104.1 192.53,-102 186.53,-99.9 186.53,-104.1"/>
</g>
<!-- client/src/logic/logic.js -->
<g id="node5" class="node">
<title>client/src/logic/logic.js</title>
<g id="a_node5"><a xlink:href="../client/src/logic/logic.js" xlink:title="logic.js">
<path fill="#ccffcc" stroke="black" d="M79.8,-50.3C79.8,-50.3 38.2,-50.3 38.2,-50.3 35.1,-50.3 32,-47.2 32,-44.1 32,-44.1 32,-37.9 32,-37.9 32,-34.8 35.1,-31.7 38.2,-31.7 38.2,-31.7 79.8,-31.7 79.8,-31.7 82.9,-31.7 86,-34.8 86,-37.9 86,-37.9 86,-44.1 86,-44.1 86,-47.2 82.9,-50.3 79.8,-50.3"/>
<text text-anchor="middle" x="59" y="-38.3" font-family="Helvetica,sans-Serif" font-size="9.00">logic.js</text>
</a>
</g>
</g>
</g>
</svg>
